<svg xmlns="http://www.w3.org/2000/svg" viewBox="0 0 320 320">
	<style>
    .st0{fill:#fbfcfd}.st3{fill:#d8e4ec}.st4{fill:#c7d8e4}.st6{fill:#82a8c3}
  </style>
	<path d="M0 0h320v320H0z" class="st0" />
	<path fill="#a5c0d3" d="M280.1 228.1c-13.1-14.2-60.8-28.5-60.8-28.5S173.9 235 159.5 235h-.5c-14.3 0-59.8-35.4-59.8-35.4s-47.6 14.1-60.8 28.3c-13.1 14.2-17.3 61.3-17.3 61.3L18.6 320h282.8l-4-30.7s-4.2-47-17.3-61.2z" />
	<path d="M103.2 320c1.5-2 3.1-5.3 4-9.6 2.1-9.6 1.3-29.3 1.3-29.3l-3.1-4.6s.6 26.3-2 34.4c-1.3 4-2.7 6.6-3.9 8.2-1.5-1.4-3.4-3.7-5.5-7.6-3.9-7.4-8.2-33.4-8.2-33.4l-2.3 5.1s2.9 19.4 6.7 28.5c1.6 3.8 3.5 6.3 5.4 8.3h7.6z" class="st0" />
	<path d="M112.4 111.8c-1.2-.7-9.4-1-12.1.5-2.7 1.4-4.3 4.3-4.6 9.7-.1 2.8 6.4 22.6 13.1 25.4 3.6 1.5 12.1 1.9 15-2.2 2.9-4.1 1.3-7.6 1.3-7.6l-5.8-23.9-6.9-1.9zM161 167.3h-38.4c-.2.9-.3 1.8-.5 2.7-1.1 5.3-1.9 10-4.1 13.2-2.8 4-5.5 5.7-7.8 8.1-5.8 6.2-10 8.6-10 8.6l4.6 25.1 55.4 21 9.9-3.8 6.4-37.6-15.5-37.3z" class="st3" />
	<path d="M197.8 167.3H122.6c-.2.9-.3 1.8-.5 2.7 4.4 13.9 37 62.8 48.1 72.3l44.7-16.9c.3-.3.6-.6.9-1l4.5-24.5c-.1 0-16.9-.9-22.5-32.6z" class="st4" />
	<path d="M206.7 111.8c1.2-.7 9.4-1 12.1.5 2.7 1.4 4.3 4.3 4.6 9.7.1 2.8-6.4 22.6-13.1 25.4-3.6 1.5-12.1 1.9-15-2.2-2.9-4.1-1.3-7.6-1.3-7.6l5.8-23.9 6.9-1.9z" class="st3" />
	<path d="M108.4 196.2c-3.8 2.8-12.1 12.7-13 24.4-.8 10.1.9 20.2.9 20.2s10.3.4 11.9 16.7c.6 6.5.5 25.4.5 25.4l-4.1-.2s-.6-14.2-1.5-23.3c-1.6-15.9-15.3-16.4-17.2.1-.6 5.4 2.2 24.3 2.2 24.3l-4.9.5s-3.8-18.7-2.7-27.7c1.6-13.1 9.5-15.7 9.5-15.7s-.2-3.7-.4-12.9c-.2-10.4 1.3-17.8 7.5-27.3 4.6-7 16.5-14.7 16.5-14.7s3.8-2.5 4.4-2.8c-.1-.1-3.5 8.5-9.6 13z" class="st6" />
	<path d="M226 264.1l.2-20.6-4.7-.6-.7 21.2c-5.4 1.1-9.5 6-9.5 11.7 0 6.6 5.4 12 12 12s12-5.4 12-12c0-5.7-4-10.5-9.3-11.7z" class="st0" />
	<path d="M232.2 276.2c0 5-4.1 9.1-9.1 9.1s-9.1-4.1-9.1-9.1 4.1-9.1 9.1-9.1 9.1 4.1 9.1 9.1z" class="st4" />
	<path d="M228.9 276.3c0 3.4-2.8 6.2-6.2 6.2s-6.2-2.8-6.2-6.2c0-3.4 2.8-6.2 6.2-6.2s6.2 2.8 6.2 6.2z" class="st0" />
	<path d="M226.2 213.4c-1.1-20-18.9-25.7-18.9-25.7s-2.6-.8-3.1-.9c0 0 2.9 6.1 8.8 10.1 0 0 4.9 4.7 6.4 17.9s.8 31.1.8 31.1h6.6c0 .2.6-12.5-.6-32.5z" class="st6" />
	<path d="M206.4 96.4s-.7-34.3-13.6-45.1c-6.7-5.6-19.2-6.7-32.3-5.6h-.2c-13.2-1.2-25.8-3.4-32.6 2.2-12.9 10.9-13.6 48.4-13.6 48.4.1 3.1-9.5 16.3-7.7 25.6 1.9 9.3 6.2 26.4 7.8 31.6 3.4 10.7-.7 7.9 12.5 22.8 5.1 5.7 14.8 17.6 21.2 18.9 3.1.6 7.6 1.3 11.9 1.6v.1H160.5v-.1c4.3-.3 8.8-1 11.9-1.6 6.4-1.3 16.1-13.2 21.2-18.9 13.2-14.9 9.1-12.2 12.5-22.8 1.7-5.2 6-22.4 7.8-31.6 2-9.2-7.7-22.5-7.5-25.5z" class="st3" />
	<path d="M160.6 196.9c4.3-.3 8.8-1 11.9-1.6 6.4-1.3 16.1-13.2 21.2-18.9 13.2-14.9 9.1-12.2 12.5-22.8 1.7-5.2 6-22.4 7.8-31.6.3-9.3-7.8-22.5-7.7-25.6 0 0-.7-34.3-13.6-45.1-6.7-5.6-19.2-6.7-32.3-5.6V197c.1-.1.1-.1.2-.1z" class="st3" />
	<path fill="#93b4cb" d="M213.7 118.1s7.6-40.7-2-60c-9.6-19.4-22.8-16.4-22.8-16.4s-7.2-17.3-42.2-6.2c-34.9 11.1-44.2 30.9-43.6 51.9.8 29.1 2.5 30.9 2.5 30.9l3.6.2s1.8-13.2 6.7-23.3c7.1-14.5 12.5-22.3 12.5-22.3s-.3 2.5-6.6 16.4c-2.3 5.1-8.5 17.9-8.5 17.9s14-2.7 39-12.4S187.1 67 187.1 67s12 3.4 17.1 25c2.7 11.2 3.3 18.6 9.5 26.1z" />
</svg>