<svg xmlns="http://www.w3.org/2000/svg" viewBox="0 0 320 320">
	<style>
    .st0{fill:#fbfcfd}.st2{fill:#93b4cb}.st3{fill:#d8e4ec}.st4{fill:#c7d8e4}.st6{fill:#82a8c3}
  </style>
	<path d="M0 0h320v320H0z" class="st0" />
	<path fill="none" d="M159.6 251.8h.2l-.1-34.6-.1 34.6z" />
	<path d="M197.1 206.9c60.1-23.8 1.4-124.5-1.4-125.5-11-3.8-30.3-24-63.6-8.1-8.8 4.2-58.7 93.9-21.1 123.4 33.5 26.3 67.7 17.5 86.1 10.2z" class="st2" />
	<path d="M159.9 180.4h-29c0 .2-.1.4-.1.7-.9 8.8-2.5 15.4-4.4 20.3-5.4 13.8-13.2 14-13.3 15 0 .2 24 34.9 46.5 35.4h.2c10.5-.6 32.2-20.8 41.7-30.2.1-3.5-4-5.9-3.9-6.1-10.5-.9-37.7-35.1-37.7-35.1z" class="st3" />
	<path d="M173.6 217.1c5.6 2.5 18.4 4 28.5 4.6 2.4-2.3 4.1-5.2 4.2-5.4 0 0-8.2-2.9-12.2-12.3-2.3-5.3-4.3-12.2-5.4-23.8l-28.8.1h-29c0 .2 0 .4-.1.7 2.1 4.5 11.9 22.4 42.8 36.1z" class="st4" />
	<path d="M166.5 178.5s-33.6-5.4-58.3-37.7c-22.8-29.7-13.6-86.5 29-101.7 68.3-24.2 83.1 34.5 84.1 56 1.5 32.9-10.8 75.4-54.8 83.4z" class="st2" />
	<path d="M214.4 112.8c-3 .2-5 2.8-6.2 5.1-.4 8.2-1.5 16.9-3.9 24.9-.2.8-.4 1.6-.7 2.3 0 1.7.1 2.9.5 3.2 1.9 1.9 6.5-3.1 8.9-12.6 2.3-9.5 6.6-23.2 1.4-22.9z" class="st3" />
	<path d="M207.5 81.6c-9-23.2-78-14-84.9-5.3-4.9 6.2-9.5 25-10.5 41.6-1-2.3-3.2-4.9-6.2-5.1-5.2-.3-.9 13.4 1.4 22.9 2.4 9.5 7 14.5 8.9 12.6.2-.1.3-.4.4-.8 2.7 10.7 5.6 21.5 11.7 30.6 2.6 3.9 22.8 19.9 31.7 18.9h.1c10.4 0 28.6-11.7 33.7-20.3 5.4-9.1 7.9-20.4 11.2-32.4.3-.9.5-1.8.8-2.8 2.2-7.8 3.3-16.1 3.8-23.9.2-3 .2-5.9.2-8.7-.2-15.3-2.3-27.3-2.3-27.3z" class="st3" />
	<path d="M207.6 81.6C202.7 69.1 181 66 160 67.2V197h-.1.1c10.4 0 28.6-11.7 33.7-20.3 5.4-9.1 7.9-20.4 11.2-32.4.3-.9.5-1.8.8-2.8 2.2-7.8 3.3-16.1 3.8-23.9.2-3 .2-5.9.2-8.7-.1-15.3-2.1-27.3-2.1-27.3z" class="st3" />
	<path d="M192.6 60.7s6.3 15.5-6.9 31c-13.1 15.4-41.4 24.2-41.4 24.2s16.4-10.2 17.8-22.6c-4.9 5.8-2.6 10.3-26.9 18.8-15.1 5.3-29.3 6.4-29.3 6.4s5.3-8.3 2.2-32.3c-6-44.6 84.5-25.5 84.5-25.5z" class="st2" />
	<path fill="#a5c0d3" d="M266.9 249.2c-3.2-8.6-7.1-15.3-11.6-17.6-16.2-8.1-48-14.6-48.9-14.8 0 0-.1.3-.2.4-2.4 2.3-33.1 31.8-46.3 32.8h-.2c-12.9-1-46.7-33.2-46.7-33.2s-32.5 6.5-49 14.8c-4.5 2.3-8.4 9-11.6 17.6-3.3 8.8-7.6 19.6-9.6 29.4-3 14.9-6.2 39.7-6.4 41.4h247.2c-.2-1.7-4-26.6-7.1-41.4-2-9.8-6.3-20.6-9.6-29.4z" />
	<path d="M212 279.9l.2-20.6-4.7-.6-.7 21.2c-5.4 1.2-9.4 6-9.4 11.7 0 6.6 5.4 12 12 12s12-5.4 12-12c0-5.7-4-10.5-9.4-11.7z" class="st0" />
	<path d="M218.2 292c0 5-4.1 9.1-9.1 9.1S200 297 200 292s4.1-9.1 9.1-9.1 9.1 4.1 9.1 9.1z" class="st4" />
	<path d="M214.9 292.1c0 3.4-2.8 6.2-6.2 6.2s-6.2-2.8-6.2-6.2 2.8-6.2 6.2-6.2c3.4.1 6.2 2.8 6.2 6.2z" class="st0" />
	<path d="M199.7 212.5s4.3 5.2 5.8 18.4.8 31.1.8 31.1h6.6s.6-12.6-.6-32.6c-1.1-20-18.2-25.4-18.2-25.4s1.8 4.6 5.6 8.5z" class="st6" />
	<path d="M99.4 294.1l-2.2 5.1s1.7 11.4 4.2 20.8h3.5c-3-10.5-5.5-25.9-5.5-25.9zM122 297.1l-3.1-4.6s.4 16.7-.8 27.5h3.5c.9-10 .4-22.9.4-22.9z" class="st0" />
	<path d="M119.7 212.6c-3.5 3.1-9.9 12.3-10.8 24-.8 10 .9 20.1.9 20.1s10.2.4 11.9 16.7c.6 6.5.5 25.3.5 25.3l-4.1-.2s-.6-14.2-1.5-23.3c-1.6-15.9-15.3-16.4-17.2.1-.6 5.4 2.2 24.3 2.2 24.3l-4.9.5s-3.8-18.6-2.7-27.7c1.6-13.1 9.5-15.7 9.5-15.7s-.2-3.7-.4-12.9c-.2-10.4 1.3-17.8 7.5-27.3 4.6-7 15.8-15.1 15.8-15.1s-2.7 7.5-6.7 11.2z" class="st6" />
</svg>