<svg aria-hidden="true" style="position: absolute; width: 0; height: 0; overflow: hidden;" version="1.1" xmlns="http://www.w3.org/2000/svg" xmlns:xlink="http://www.w3.org/1999/xlink">
  <defs>
    <symbol id="icon-timer" viewBox="0 0 42 48">
      <g fill="none">
        <path fill="#525252" d="M25 26.51a3.5 3.5 0 1 0-6.52 1.78 3.57 3.57 0 0 0 3.74 1.65A3.53 3.53 0 0 0 25 26.51c.01-.57-.5-1.11-1.09-1.09-.6.03-1.08.48-1.09 1.1l-.01.2c0 .18 0-.08.01-.1-.04.07-.04.24-.07.32-.01.05-.06.13-.06.18 0-.03.12-.24.03-.09a7.18 7.18 0 0 1-.19.33c-.12.18.14-.14.03-.05l-.1.11-.1.1c-.09.08-.18.07.03-.02-.09.04-.18.12-.26.18l-.11.05c-.18.1.24-.07 0 0l-.32.1c-.14.02-.11-.05.06-.01-.04-.01-.11 0-.16.01h-.34c-.15-.02.3.05.07 0l-.2-.05-.17-.06c-.13-.04 0-.06.08.04-.06-.06-.2-.1-.28-.15l-.13-.08c-.12-.08.2.18.05.03-.07-.07-.19-.23-.26-.27.1.05.12.18.05.07l-.1-.16-.06-.11-.03-.06a1 1 0 0 0 .03.09c0-.1-.07-.21-.1-.3l-.03-.13c-.04-.22.02.27 0 0v-.31c.01-.11.08-.26 0 .02l.02-.13c.02-.1.06-.2.1-.31.06-.22-.13.22-.02.02l.1-.16.08-.13c.08-.13.1-.02-.04.04.07-.03.16-.17.22-.23.03-.03.19-.13.03-.04-.16.1.02 0 .05-.03.08-.05.27-.1.33-.18-.02.02-.26.1-.09.04l.19-.06.12-.03c.04-.01.25-.04.05-.02s.03 0 .06 0h.34c.22.02-.24-.04-.03 0l.37.11c.2.07-.17-.1-.05-.02.05.04.13.06.19.1l.1.07.1.07-.06-.05.22.22c.16.16-.14-.21-.02-.02.04.05.08.1.1.16l.1.16a11.13 11.13 0 0 1 .1.35c.02.12-.05.07-.02-.1-.01.08.02.2.02.27.01.57.5 1.12 1.09 1.1A1.09 1.09 0 0 0 25 26.5z" />
        <path fill="#525252" d="M22 41.83V29.17c0-.61-.46-1.2-1-1.17-.54.03-1 .51-1 1.17v12.66c0 .61.46 1.2 1 1.17.54-.03 1-.51 1-1.17zm3.72.12a14.95 14.95 0 0 0 6.44-4.3 15.53 15.53 0 0 0 3.58-7.39c.51-2.87.28-5.9-.8-8.62a15.63 15.63 0 0 0-4.87-6.56c-2.55-2-5.73-3.07-8.93-3.08-.6 0-1.17.55-1.14 1.18.03.64.5 1.18 1.14 1.18.35 0 .7.02 1.05.04l.43.04c.08.01.17.01.26.04a13.97 13.97 0 0 1 2.88.78l.23.1c.27.1-.23-.11.03 0l.45.22c.57.27 1.12.6 1.65.96a9.87 9.87 0 0 1 .76.55l.18.15a14.28 14.28 0 0 1 1.62 1.63l.27.33.12.15c.05.07.22.2 0 0 .11.1.2.27.28.38a13.77 13.77 0 0 1 1.13 1.96l.2.43c.02.05.08.15.09.21l-.06-.13.06.14a14.43 14.43 0 0 1 .77 2.7l.07.43c.01.07.04.15.03.2.03-.29 0-.08 0 .02a14.96 14.96 0 0 1 .02 3.12l-.03.3c-.03.32.04-.26 0 .06a13.92 13.92 0 0 1-.36 1.67 16.94 16.94 0 0 1-.43 1.36 2.69 2.69 0 0 1-.1.21c-.04.12-.03.1.03-.06l-.06.14a15.34 15.34 0 0 1-1.23 2.29l-.26.38c-.03.04-.1.16-.13.18a2.44 2.44 0 0 0 .06-.09.6.6 0 0 1-.07.1 14.13 14.13 0 0 1-2.02 2.12l-.18.15-.11.1c.13-.11.15-.13.05-.06l-.36.28c-.54.39-1.1.74-1.7 1.05l-.43.22-.2.1-.14.05.1-.04c-.32.13-.64.26-.96.37-.57.2-1 .82-.8 1.45.17.57.78 1.01 1.4.8z" />
        <path fill="#000" d="M22 6.88V1.13c0-.6-.46-1.15-1-1.13-.54.03-1 .5-1 1.12v5.76c0 .58.46 1.14 1 1.12.54-.03 1-.5 1-1.12z" />
        <path fill="#525252" d="M25.82 0H15.18c-.62 0-1.2.46-1.18 1 .03.54.52 1 1.18 1h10.64c.62 0 1.2-.46 1.18-1-.03-.54-.52-1-1.18-1zm13.83 27c0 .59-.02 1.17-.07 1.75-.03.29-.05.58-.1.86.05-.3-.01.08-.02.16a19.83 19.83 0 0 1-.97 3.74l-.23.62-.08.17c-.05.15.1-.2.03-.06l-.16.35a19.7 19.7 0 0 1-2.11 3.6l-.19.25c-.15.2.13-.16.03-.03l-.1.12a21.32 21.32 0 0 1-1.4 1.57 21.63 21.63 0 0 1-1.5 1.4c-.09.05-.16.12-.24.18l-.12.1c-.2.15.18-.14 0 0a21.7 21.7 0 0 1-2.34 1.54 21.08 21.08 0 0 1-1.23.63 21.84 21.84 0 0 1-.53.25l-.18.07-.36.14a19.64 19.64 0 0 1-3.93 1.05l-.42.07c.04 0 .25-.03.02 0l-.3.02a22.02 22.02 0 0 1-3.53.08l-.82-.08a3.74 3.74 0 0 0-.24-.02.6.6 0 0 0 .02 0c-.16-.01-.32-.05-.47-.07a19.42 19.42 0 0 1-4.2-1.17l-.18-.08c-.13-.06.23.1.03.01-.42-.19-.84-.38-1.25-.6a20.26 20.26 0 0 1-2.39-1.45 18.47 18.47 0 0 1-.5-.36l-.11-.1-.3-.24c-.37-.3-.72-.6-1.05-.93A19.99 19.99 0 0 1 6.3 38.5l-.09-.12c-.12-.15.03.04.04.06l-.2-.28-.43-.59c-.26-.38-.5-.77-.73-1.16a17.11 17.11 0 0 1-.66-1.22 16.98 16.98 0 0 1-.3-.63l-.12-.28c-.09-.2.01.05.02.07-.04-.06-.06-.15-.09-.22a19.58 19.58 0 0 1-1.12-3.89l-.06-.37c0-.08-.02-.16-.04-.24l-.02-.14a21.4 21.4 0 0 1-.13-1.65 20.5 20.5 0 0 1 .11-3.15c.01-.08.07-.43.01-.1l.05-.32a19.15 19.15 0 0 1 .47-2.2c.13-.47.28-.93.43-1.38l.24-.63.13-.33a3.71 3.71 0 0 0-.02.06l.09-.22a19.66 19.66 0 0 1 2.11-3.65l.21-.28c.05-.08.11-.22-.02.02l.1-.13.44-.54a20.31 20.31 0 0 1 2-2.03c.16-.15.33-.3.5-.43l.27-.22.03-.02.08-.06c.17-.14-.13.09 0 0a19.82 19.82 0 0 1 3.92-2.33l.3-.13.16-.06A18.92 18.92 0 0 1 16.2 9a19.79 19.79 0 0 1 2.3-.47c.06 0 .21-.04-.06 0l.17-.01.44-.05a19.89 19.89 0 0 1 3.2-.06l.8.07.34.03.1.01.15.02a19.7 19.7 0 0 1 4.47 1.22c.06.02.13.04.2.08l-.05-.02.3.13a21.81 21.81 0 0 1 2.09 1.1 20.1 20.1 0 0 1 1.53 1.02l.17.13c.03.02.17.13.04.04l-.05-.05.3.24-.1-.08.3.25a19.63 19.63 0 0 1 2.94 3c.16.21-.12-.15-.02-.01l.1.12a14.81 14.81 0 0 1 .61.86 19.8 19.8 0 0 1 1.41 2.49l.28.6.07.15c-.05-.25-.06-.12-.01-.02l.14.36a20.71 20.71 0 0 1 1.12 4.22l.03.16-.01-.07c0 .12.03.25.04.37a19.92 19.92 0 0 1 .11 2.18c0 .62.54 1.2 1.18 1.18A1.2 1.2 0 0 0 42 27a21.01 21.01 0 0 0-3.58-11.73 21 21 0 0 0-4.04-4.45l-.3-.24c-.06-.05-.47-.36-.08-.07l-.3-.23a21.27 21.27 0 0 0-1.97-1.34 21.76 21.76 0 0 0-3.04-1.48 21 21 0 0 0-13.2-.73A20.85 20.85 0 0 0 9.55 9.4a21.85 21.85 0 0 0-1.38 1l-.3.22a17 17 0 0 0-.83.7 20.32 20.32 0 0 0-2.04 2.1A21.27 21.27 0 0 0 .13 24.76a20.96 20.96 0 0 0 11.33 20.95A21 21 0 0 0 42 27.01c0-.61-.54-1.2-1.17-1.17A1.2 1.2 0 0 0 39.65 27z" />
        <path fill="#525252" d="M9.68 10.96L7.3 7.81l-.35-.46C6.78 7.13 6.4 7 6.14 7c-.28 0-.62.13-.82.35-.46.53-.4 1.16 0 1.69l2.38 3.15.35.46c.17.22.55.35.81.35.28 0 .62-.13.82-.35.46-.52.4-1.16 0-1.69zm25.37-3.61l-2.37 3.15-.35.47c-.19.26-.33.5-.33.84 0 .3.13.64.34.84.4.4 1.22.53 1.61 0l2.37-3.15.35-.47c.19-.26.33-.5.33-.84 0-.3-.13-.64-.34-.84-.4-.4-1.22-.53-1.61 0z" />
      </g>
    </symbol>
    <symbol id="icon-left" width="15" height="17" viewBox="0 0 15 17">
      <path fill="none" stroke-linecap="round" stroke-linejoin="round" stroke-width="3" d="M13 15L2 8.98 13 2" />
    </symbol>

    <symbol id="icon-morning" viewBox="0 0 34 34">
      <path fill="#F1D05F" fill-rule="evenodd" d="M16.912 8.022c4.915 0 8.913 4.009 8.913 8.937 0 4.927-3.998 8.936-8.913 8.936C11.998 25.895 8 21.886 8 16.96c0-4.928 3.998-8.937 8.912-8.937zm0 19.076c5.576 0 10.113-4.548 10.113-10.14 0-5.59-4.537-10.14-10.113-10.14S6.8 11.368 6.8 16.958c0 5.592 4.536 10.14 10.112 10.14zm0-22.686a.6.6 0 0 0 .6-.602V.602a.6.6 0 1 0-1.2 0V3.81a.6.6 0 0 0 .6.602M7.216 8.087a.598.598 0 0 0 .849 0 .603.603 0 0 0 0-.85l-2.263-2.27a.599.599 0 0 0-.848 0 .603.603 0 0 0 0 .85l2.262 2.27M.6 17.56h3.2a.601.601 0 0 0 0-1.203H.6a.6.6 0 0 0 0 1.203m4.777 11.566a.599.599 0 0 0 .425-.176l2.263-2.27a.603.603 0 0 0 0-.85.6.6 0 0 0-.849 0l-2.263 2.269a.603.603 0 0 0 .424 1.027m11.535 4.791a.6.6 0 0 0 .6-.602v-3.208a.6.6 0 0 0-1.2 0v3.208a.6.6 0 0 0 .6.602m11.535-4.79a.603.603 0 0 0 .424-1.027l-2.262-2.27a.6.6 0 0 0-.849 0 .604.604 0 0 0 0 .85l2.262 2.27a.598.598 0 0 0 .425.177m1.578-11.567h3.2a.6.6 0 0 0 0-1.203h-3.2a.6.6 0 0 0 0 1.203m-3.841-9.297a.596.596 0 0 0 .424-.176l2.264-2.268a.602.602 0 0 0 0-.851.599.599 0 0 0-.848 0L25.76 7.235a.604.604 0 0 0 .424 1.027" />
    </symbol>
    <symbol id="icon-noon" viewBox="0 0 34 29">
      <path fill="#EE6C0F" fill-rule="evenodd" d="M7.4 17.56a.6.6 0 0 0 .6-.601c0-4.928 3.998-8.937 8.912-8.937 4.915 0 8.913 4.009 8.913 8.937a.601.601 0 1 0 1.2 0c0-5.591-4.537-10.14-10.113-10.14S6.8 11.367 6.8 16.958a.6.6 0 0 0 .6.601m9.512-13.147a.6.6 0 0 0 .6-.602V.602a.601.601 0 1 0-1.2 0V3.81a.6.6 0 0 0 .6.602M7.216 8.087a.597.597 0 0 0 .849 0 .602.602 0 0 0 0-.85l-2.263-2.27a.6.6 0 0 0-.848 0 .603.603 0 0 0 0 .85l2.262 2.27M.6 17.56h3.2a.601.601 0 0 0 0-1.203H.6a.6.6 0 0 0 0 1.203m29.425 0h3.2a.6.6 0 0 0 0-1.203h-3.2a.6.6 0 0 0 0 1.203m-3.841-9.297a.597.597 0 0 0 .424-.176l2.264-2.268a.603.603 0 0 0 0-.851.6.6 0 0 0-.849 0L25.76 7.235a.603.603 0 0 0 .424 1.027m.841 12.306a.6.6 0 0 0-.6-.601H7.4a.6.6 0 0 0 0 1.203h19.025a.6.6 0 0 0 .6-.602M13.8 27.186a.6.6 0 0 0 0 1.204h5.825a.6.6 0 0 0 0-1.204H13.8m10.025-3.008a.6.6 0 0 0-.6-.601H10.2a.6.6 0 0 0 0 1.203h13.025a.6.6 0 0 0 .6-.602" />
    </symbol>
    <symbol id="icon-evening" viewBox="0 0 34 28">
      <path fill="#596F8B" fill-rule="evenodd" d="M5.759 15.926a.601.601 0 0 0 .171-1.179 7.086 7.086 0 0 1-4.417-3.924c.33.04.662.06.995.06 4.533 0 8.221-3.698 8.221-8.244 0-.38-.026-.759-.078-1.135a7.083 7.083 0 0 1 4.008 4.429.6.6 0 1 0 1.146-.352A8.274 8.274 0 0 0 10.003.019a.6.6 0 0 0-.728.743c.169.612.254 1.244.254 1.877 0 3.882-3.15 7.04-7.02 7.04a7.042 7.042 0 0 1-1.76-.222.598.598 0 0 0-.577.16.604.604 0 0 0-.15.582A8.294 8.294 0 0 0 5.585 15.9a.614.614 0 0 0 .173.026M26.439 25.99H13.756c-3.167 0-5.742-2.581-5.742-5.756 0-3.175 2.575-5.758 5.742-5.758.448 0 .895.052 1.326.154a.6.6 0 0 0 .722-.447.602.602 0 0 0-.446-.724 7.018 7.018 0 0 0-.973-.155c.286-2.907 2.738-5.186 5.712-5.186 2.974 0 5.426 2.279 5.713 5.186-.328.03-.654.08-.973.155a.602.602 0 0 0 .276 1.171 5.757 5.757 0 0 1 1.326-.154c3.166 0 5.743 2.583 5.743 5.758s-2.577 5.757-5.743 5.757zm.57-12.688c-.291-3.57-3.277-6.388-6.912-6.388-3.634 0-6.62 2.818-6.912 6.388a6.959 6.959 0 0 0-6.371 6.932c0 3.838 3.114 6.96 6.942 6.96h12.683a6.96 6.96 0 1 0 .571-13.892z" />
    </symbol>
    <symbol id="icon-night" viewBox="0 0 25 25">
      <path fill="#0B0A29" fill-rule="evenodd" d="M3.723 15.889c-.753 0-1.504-.07-2.245-.208a11.11 11.11 0 0 0 10.465 7.383c6.127 0 11.112-4.999 11.112-11.143 0-4.654-2.91-8.806-7.188-10.425a12.5 12.5 0 0 1 .169 2.047c0 6.808-5.524 12.346-12.313 12.346zM14.645.173a.598.598 0 0 1 .58-.151c5.317 1.471 9.03 6.365 9.03 11.9 0 6.807-5.523 12.345-12.312 12.345A12.313 12.313 0 0 1 .019 15.012a.604.604 0 0 1 .16-.58.596.596 0 0 1 .581-.15c.967.268 1.964.403 2.963.403 6.128 0 11.113-4.998 11.113-11.142 0-.945-.119-1.884-.352-2.791a.603.603 0 0 1 .16-.579z" />
    </symbol>
    <symbol id="icon-edit" viewBox="0 0 25 25">
      <g fill="#525252">
        <path d="M7.482 14.29l-1.454 4.072a.478.478 0 0 0 .61.61l4.071-1.454c.33-.117.628-.306.876-.554L24.748 3.801a.86.86 0 0 0 0-1.217L22.416.252a.86.86 0 0 0-1.217 0L8.036 13.415a2.361 2.361 0 0 0-.554.876z" />
        <path d="M3.617 25h12.766A3.617 3.617 0 0 0 20 21.383V16.97a1.113 1.113 0 1 0-2.225 0v4.414a1.391 1.391 0 0 1-1.392 1.392H3.617a1.391 1.391 0 0 1-1.392-1.392V8.617a1.391 1.391 0 0 1 1.392-1.392h4.406a1.113 1.113 0 0 0 0-2.225H3.617A3.617 3.617 0 0 0 0 8.617v12.766A3.617 3.617 0 0 0 3.617 25z" />
      </g>
    </symbol>
    <symbol id="icon-info" viewBox="0 0 23 23">
      <path d="M11.5 0C5.158 0 0 5.158 0 11.5S5.158 23 11.5 23 23 17.842 23 11.5 17.842 0 11.5 0zm0 1.533a9.955 9.955 0 0 1 9.967 9.967 9.955 9.955 0 0 1-9.967 9.967A9.955 9.955 0 0 1 1.533 11.5 9.955 9.955 0 0 1 11.5 1.533zm-.256 4.6a1.022 1.022 0 1 0 0 2.045 1.022 1.022 0 0 0 0-2.045zM10.142 8.69a.768.768 0 1 0 .08 1.533h.511v5.111h-.51a.767.767 0 1 0 0 1.534h2.555a.767.767 0 1 0 0-1.534h-.511V9.456a.767.767 0 0 0-.767-.767h-1.278a.767.767 0 0 0-.08 0z" />
    </symbol>
    <symbol id="icon-close" viewBox="0 0 11 10">
      <path fill="none" fill-rule="evenodd" stroke="currentColor" stroke-linecap="square" d="M.5 0l9.557 9.557M10.5 0L.943 9.557" />
    </symbol>
    <symbol id="icon-check-circle" viewBox="0 0 512 512">
      <path fill="currentColor" d="M504 256c0 136.967-111.033 248-248 248S8 392.967 8 256 119.033 8 256 8s248 111.033 248 248zM227.314 387.314l184-184c6.248-6.248 6.248-16.379 0-22.627l-22.627-22.627c-6.248-6.249-16.379-6.249-22.628 0L216 308.118l-70.059-70.059c-6.248-6.248-16.379-6.248-22.628 0l-22.627 22.627c-6.248 6.248-6.248 16.379 0 22.627l104 104c6.249 6.249 16.379 6.249 22.628.001z"></path>
    </symbol>
    <symbol id="icon-holiday" viewBox="0 0 31 31">
      <g fill-rule="evenodd">
        <path d="M0 2.567h5.658v1.79c0 1.194.89 2.2 2.01 2.2 1.092 0 1.982-1.006 1.982-2.2v-1.79h5.888v1.508c0 1.194.89 2.167 1.981 2.167 1.12 0 2.01-.973 2.01-2.167V2.567h5.659v24.816H0V2.567zM7.66.321c.702 0 1.259.596 1.259 1.348v2.728c0 .752-.557 1.38-1.26 1.38S6.37 5.148 6.37 4.396V1.669c0-.752.586-1.348 1.29-1.348zM17.527 0c-.703 0-1.259.627-1.259 1.38v2.727c0 .753.556 1.348 1.26 1.348.702 0 1.288-.595 1.288-1.348V1.38C18.817.627 18.231 0 17.528 0zM1.372 9.52h22.443v16.366H1.372V9.52z" />
        <path d="M21.313 27.77l-5.695 2.406.56-6.083-4.079-4.597 6.04-1.355 3.174-5.245 3.173 5.245 6.04 1.355-4.08 4.597.56 6.083z" />
      </g>
    </symbol>
  </defs>
</svg>